<mxfile host="app.diagrams.net" modified="2023-08-23T09:46:26.482Z" agent="Mozilla/5.0 (X11; Linux x86_64) AppleWebKit/537.36 (KHTML, like Gecko) Chrome/112.0.0.0 Safari/537.36" version="21.6.9" etag="uB20oCTkwDFP61TwTOGo" type="github">
  <diagram name="第 1 页" id="WlB2I3lsD56q5b8U-Cq0">
    <mxGraphModel>
      <root>
        <mxCell id="0" />
        <mxCell id="1" parent="0" />
      </root>
    </mxGraphModel>
  </diagram>
</mxfile>
